<svg width="32" height="32" viewBox="0 0 32 32" fill="none" xmlns="http://www.w3.org/2000/svg">
  <!-- Background circle -->
  <circle cx="16" cy="16" r="16" fill="#1e40af"/>
  
  <!-- Scales of Justice -->
  <g fill="#ffffff">
    <!-- Left scale bowl -->
    <ellipse cx="10" cy="18" rx="3" ry="1.5" fill="#ffffff"/>
    
    <!-- Right scale bowl -->
    <ellipse cx="22" cy="18" rx="3" ry="1.5" fill="#ffffff"/>
    
    <!-- Central pillar -->
    <rect x="15.5" y="8" width="1" height="12" fill="#ffffff"/>
    
    <!-- Crossbar -->
    <rect x="8" y="12" width="16" height="1" fill="#ffffff"/>
    
    <!-- Left chain -->
    <path d="M10 18 L10 12" stroke="#ffffff" stroke-width="0.5" fill="none"/>
    
    <!-- Right chain -->
    <path d="M22 18 L22 12" stroke="#ffffff" stroke-width="0.5" fill="none"/>
    
    <!-- Balance indicator -->
    <circle cx="16" cy="14" r="1" fill="#ffffff"/>
  </g>
  
  <!-- Modern geometric accent -->
  <path d="M6 6 L10 6 L10 10 L6 10 Z" fill="#3b82f6" opacity="0.8"/>
  <path d="M22 6 L26 6 L26 10 L22 10 Z" fill="#3b82f6" opacity="0.8"/>
  <path d="M6 22 L10 22 L10 26 L6 26 Z" fill="#3b82f6" opacity="0.8"/>
  <path d="M22 22 L26 22 L26 26 L22 26 Z" fill="#3b82f6" opacity="0.8"/>
</svg>
